<svg width="24" height="16" viewBox="0 0 24 16" fill="none" xmlns="http://www.w3.org/2000/svg">
<path d="M19.35 6.04C18.67 2.59 15.64 0 12 0C9.11 0 6.61 1.64 5.36 4.04C2.35 4.36 0 6.9 0 10C0 13.31 2.69 16 6 16H19C21.76 16 24 13.76 24 11C24 8.36 21.95 6.22 19.35 6.04ZM19 14H6.17C4.08 14 2.22 12.47 2.02 10.39C1.79 8.01 3.66 6 6 6C7.92 6 9.53 7.36 9.91 9.17C10.01 9.65 10.41 10 10.89 10C11.5 10 12 9.45 11.88 8.85C11.45 6.61 9.77 4.82 7.59 4.22C8.69 2.76 10.48 1.85 12.48 2.02C15.36 2.27 17.49 4.84 17.49 7.73V8H18.86C20.31 8 21.65 8.97 21.93 10.4C22.32 12.31 20.85 14 19 14V14Z" fill="#323232"/>
</svg>
