<svg width="20" height="12" viewBox="0 0 20 12" fill="none" xmlns="http://www.w3.org/2000/svg">
<path d="M6.69998 9.9L2.79998 6L6.69998 2.1C7.08998 1.71 7.08998 1.09 6.69998 0.700001C6.30998 0.310001 5.68998 0.310001 5.29998 0.700001L0.70998 5.29C0.31998 5.68 0.31998 6.31 0.70998 6.7L5.29998 11.3C5.68998 11.69 6.30998 11.69 6.69998 11.3C7.08998 10.91 7.08998 10.29 6.69998 9.9ZM13.3 9.9L17.2 6L13.3 2.1C12.91 1.71 12.91 1.09 13.3 0.700001C13.69 0.310001 14.31 0.310001 14.7 0.700001L19.29 5.29C19.68 5.68 19.68 6.31 19.29 6.7L14.7 11.3C14.31 11.69 13.69 11.69 13.3 11.3C12.91 10.91 12.91 10.29 13.3 9.9Z" fill="#323232"/>
</svg>
