<svg width="36" height="36" viewBox="0 0 36 36" fill="none" xmlns="http://www.w3.org/2000/svg">
<path d="M13.5 19.5C16.8137 19.5 19.5 16.8137 19.5 13.5C19.5 10.1863 16.8137 7.5 13.5 7.5C10.1863 7.5 7.5 10.1863 7.5 13.5C7.5 16.8137 10.1863 19.5 13.5 19.5Z" fill="#000"/>
<path d="M13.5 22.5C9.495 22.5 1.5 24.51 1.5 28.5V30C1.5 30.825 2.175 31.5 3 31.5H24C24.825 31.5 25.5 30.825 25.5 30V28.5C25.5 24.51 17.505 22.5 13.5 22.5ZM23.205 11.655C23.685 12.84 23.685 14.16 23.205 15.345C22.92 16.05 23.04 16.845 23.58 17.385L23.625 17.43C24.495 18.3 25.98 18.12 26.55 17.025C27.69 14.85 27.69 12.3 26.52 10.035C25.95 8.92501 24.45 8.71501 23.565 9.60001L23.55 9.61501C23.04 10.14 22.92 10.95 23.205 11.655ZM28.77 4.33501C28.17 4.93501 28.08 5.86501 28.575 6.55501C31.53 10.665 31.515 16.17 28.53 20.43C28.05 21.105 28.155 22.035 28.74 22.62L28.785 22.665C29.52 23.4 30.765 23.34 31.395 22.515C35.52 17.205 35.535 9.96001 31.395 4.48501C30.765 3.66001 29.505 3.60001 28.77 4.33501Z" fill="#000"/>
</svg>
