<svg width="523" height="467" viewBox="0 0 523 467" fill="none" xmlns="http://www.w3.org/2000/svg">
<g clip-path="url(#clip0_7_854)">
<path d="M402.53 58.257L105.646 100.584L44.5218 209.886L302.892 427.012L486.205 140.889L402.53 58.257Z" fill="url(#paint0_linear_7_854)"/>
<path d="M432.644 151.455V178.861C432.9 178.745 433.225 178.745 433.504 179.024L441.5 192.691L457.749 203.268H497.195V151.432H432.644V151.455Z" fill="white"/>
<path d="M497.195 150.595H432.644C432.179 150.595 431.807 150.967 431.807 151.432V169.702C432.272 169.261 432.877 168.982 433.504 168.866V152.269H496.381V202.408H458.027L442.151 192.064L440.338 188.972C440.501 190.228 440.571 191.506 440.594 192.761L440.78 193.087C440.85 193.203 440.943 193.296 441.059 193.366L457.307 203.942C457.446 204.035 457.609 204.081 457.772 204.081H497.218C497.683 204.081 498.055 203.709 498.055 203.245V151.409C498.055 150.991 497.66 150.595 497.195 150.595Z" fill="black"/>
<path d="M505.493 159.056H440.943V210.892H505.493V159.056Z" fill="white"/>
<path d="M505.493 158.22H440.943C440.478 158.22 440.106 158.591 440.106 159.056V165.239C440.199 165.193 440.269 165.146 440.362 165.123C440.85 164.891 441.338 164.775 441.803 164.728V159.893H504.679V210.032H441.803V171.864C441.268 172.19 440.71 172.492 440.106 172.678V210.892C440.106 211.357 440.478 211.729 440.943 211.729H505.493C505.958 211.729 506.33 211.357 506.33 210.892V159.056C506.353 158.591 505.958 158.22 505.493 158.22Z" fill="black"/>
<path d="M456.679 197.736C456.214 197.736 455.843 197.364 455.843 196.899V169.238C455.843 168.773 456.214 168.401 456.679 168.401C457.144 168.401 457.516 168.773 457.516 169.238V196.899C457.539 197.34 457.144 197.736 456.679 197.736Z" fill="black"/>
<path d="M467.046 188.043C466.581 188.043 466.209 187.671 466.209 187.206V169.238C466.209 168.773 466.581 168.401 467.046 168.401C467.511 168.401 467.883 168.773 467.883 169.238V187.206C467.906 187.671 467.534 188.043 467.046 188.043Z" fill="black"/>
<path d="M388.712 122.423C384.249 122.423 380.599 118.797 380.599 114.31C380.599 109.847 384.225 106.198 388.712 106.198C393.198 106.198 396.824 109.824 396.824 114.31C396.824 118.773 393.175 122.423 388.712 122.423ZM388.712 107.895C385.178 107.895 382.296 110.777 382.296 114.31C382.296 117.844 385.178 120.726 388.712 120.726C392.245 120.726 395.127 117.844 395.127 114.31C395.127 110.777 392.245 107.895 388.712 107.895Z" fill="black"/>
<path d="M212.726 119.424H165.307C164.842 119.424 164.47 119.052 164.47 118.587C164.47 118.123 164.842 117.751 165.307 117.751H212.726C213.191 117.751 213.563 118.123 213.563 118.587C213.563 119.052 213.191 119.424 212.726 119.424Z" fill="black"/>
<path d="M371.906 113.52H355.425C354.961 113.52 354.589 113.148 354.589 112.683C354.589 112.218 354.961 111.846 355.425 111.846H371.906C372.371 111.846 372.743 112.218 372.743 112.683C372.766 113.148 372.371 113.52 371.906 113.52Z" fill="black"/>
<path d="M371.906 123.283H355.425C354.961 123.283 354.589 122.911 354.589 122.446C354.589 121.981 354.961 121.609 355.425 121.609H371.906C372.371 121.609 372.743 121.981 372.743 122.446C372.743 122.911 372.371 123.283 371.906 123.283Z" fill="black"/>
<path d="M234.576 84.6967H148.92C148.455 84.6967 148.083 84.3247 148.083 83.8598V66.3799C148.083 65.915 148.455 65.5431 148.92 65.5431H234.576C235.041 65.5431 235.413 65.915 235.413 66.3799V83.8598C235.413 84.3247 235.041 84.6967 234.576 84.6967ZM149.78 82.9998H233.716V67.2167H149.78V82.9998Z" fill="black"/>
<path d="M397.824 379.578H370.279C369.814 379.578 369.442 379.206 369.442 378.742V342.689C369.442 342.224 369.814 341.852 370.279 341.852H397.824C398.289 341.852 398.661 342.224 398.661 342.689V378.742C398.661 379.183 398.289 379.578 397.824 379.578ZM371.116 377.882H396.964V343.503H371.116V377.882Z" fill="black"/>
<path d="M402.821 371.559H398.312C397.847 371.559 397.475 371.187 397.475 370.722C397.475 370.257 397.847 369.885 398.312 369.885H402.821C408.144 369.885 412.491 365.539 412.491 360.216C412.491 354.893 408.144 350.546 402.821 350.546H397.824C397.359 350.546 396.987 350.174 396.987 349.709C396.987 349.244 397.359 348.872 397.824 348.872H402.821C409.097 348.872 414.188 353.963 414.188 360.239C414.188 366.468 409.097 371.559 402.821 371.559Z" fill="black"/>
<path d="M230.578 162.915H144.899V230.301H230.578V162.915Z" fill="white"/>
<path d="M230.602 231.138H144.898C144.434 231.138 144.062 230.766 144.062 230.301V162.915C144.062 162.45 144.434 162.078 144.898 162.078H230.578C231.043 162.078 231.415 162.45 231.415 162.915V230.301C231.438 230.766 231.066 231.138 230.602 231.138ZM145.759 229.441H229.741V163.752H145.759V229.441Z" fill="black"/>
<path d="M265.98 140.949L230.602 162.892H144.899L201.104 128.025H262.517C263.493 130.163 262.912 132.65 259.495 133.301C251.382 134.835 249.941 137.183 252.684 138.903C254.799 140.251 257.844 139.554 265.98 140.949Z" fill="white"/>
<path d="M230.602 163.752H144.898C144.527 163.752 144.178 163.496 144.085 163.147C143.992 162.775 144.131 162.404 144.457 162.194L200.662 127.304C200.802 127.211 200.941 127.188 201.104 127.188H262.516C262.842 127.188 263.144 127.374 263.283 127.676C263.934 129.117 263.958 130.558 263.353 131.721C262.912 132.581 261.912 133.696 259.657 134.115C254.079 135.184 252.382 136.509 252.266 137.137C252.219 137.416 252.544 137.811 253.126 138.183C254.148 138.833 255.566 138.95 257.914 139.136C259.843 139.298 262.516 139.508 266.119 140.112C266.468 140.182 266.747 140.437 266.817 140.786C266.886 141.135 266.724 141.483 266.445 141.669L231.066 163.636C230.904 163.705 230.741 163.752 230.602 163.752ZM147.874 162.055H230.346L263.586 141.437C261.145 141.088 259.262 140.949 257.775 140.833C255.148 140.623 253.59 140.507 252.196 139.624C250.615 138.624 250.429 137.555 250.569 136.834C250.917 134.975 253.869 133.487 259.309 132.464C260.564 132.232 261.447 131.697 261.819 130.954C262.121 130.372 262.145 129.652 261.912 128.885H201.337L147.874 162.055Z" fill="black"/>
<path d="M173.35 192.715H153.662C153.197 192.715 152.825 192.343 152.825 191.878V172.19C152.825 171.725 153.197 171.353 153.662 171.353H173.35C173.815 171.353 174.187 171.725 174.187 172.19V191.878C174.187 192.343 173.815 192.715 173.35 192.715ZM154.499 191.018H172.49V173.026H154.499V191.018Z" fill="black"/>
<path d="M153.638 192.715C153.429 192.715 153.197 192.622 153.034 192.459C152.709 192.134 152.709 191.599 153.034 191.273L172.722 171.585C173.048 171.26 173.582 171.26 173.908 171.585C174.233 171.911 174.233 172.445 173.908 172.771L154.22 192.459C154.08 192.645 153.871 192.715 153.638 192.715Z" fill="black"/>
<path d="M206.032 192.715H186.344C185.879 192.715 185.507 192.343 185.507 191.878V172.19C185.507 171.725 185.879 171.353 186.344 171.353H206.032C206.497 171.353 206.869 171.725 206.869 172.19V191.878C206.892 192.343 206.52 192.715 206.032 192.715ZM187.204 191.018H205.195V173.026H187.204V191.018Z" fill="black"/>
<path d="M186.344 192.715C186.134 192.715 185.902 192.622 185.739 192.459C185.414 192.134 185.414 191.599 185.739 191.273L205.428 171.585C205.753 171.26 206.288 171.26 206.613 171.585C206.938 171.911 206.938 172.445 206.613 172.771L186.925 192.459C186.785 192.645 186.576 192.715 186.344 192.715Z" fill="black"/>
<path d="M173.35 221.189H153.662C153.197 221.189 152.825 220.817 152.825 220.353V200.664C152.825 200.199 153.197 199.828 153.662 199.828H173.35C173.815 199.828 174.187 200.199 174.187 200.664V220.353C174.187 220.817 173.815 221.189 173.35 221.189ZM154.499 219.516H172.49V201.524H154.499V219.516Z" fill="black"/>
<path d="M153.638 221.189C153.429 221.189 153.197 221.096 153.034 220.934C152.709 220.608 152.709 220.074 153.034 219.748L172.722 200.06C173.048 199.735 173.582 199.735 173.908 200.06C174.233 200.385 174.233 200.92 173.908 201.245L154.22 220.934C154.08 221.12 153.871 221.189 153.638 221.189Z" fill="black"/>
<path d="M206.032 221.189H186.344C185.879 221.189 185.507 220.817 185.507 220.353V200.664C185.507 200.199 185.879 199.828 186.344 199.828H206.032C206.497 199.828 206.869 200.199 206.869 200.664V220.353C206.892 220.817 206.52 221.189 206.032 221.189ZM187.204 219.516H205.195V201.524H187.204V219.516Z" fill="black"/>
<path d="M186.344 221.189C186.134 221.189 185.902 221.096 185.739 220.934C185.414 220.608 185.414 220.074 185.739 219.748L205.428 200.06C205.753 199.735 206.288 199.735 206.613 200.06C206.938 200.385 206.938 200.92 206.613 201.245L186.925 220.934C186.785 221.12 186.576 221.189 186.344 221.189Z" fill="black"/>
<path d="M449.218 327.696H438.921C438.456 327.696 438.084 327.325 438.084 326.86C438.084 326.395 438.456 326.023 438.921 326.023H449.218C449.683 326.023 450.055 326.395 450.055 326.86C450.078 327.325 449.683 327.696 449.218 327.696Z" fill="black"/>
<path d="M506.609 358.612H438.92C438.455 358.612 438.083 358.24 438.083 357.775C438.083 357.31 438.455 356.938 438.92 356.938H506.609C507.074 356.938 507.446 357.31 507.446 357.775C507.446 358.24 507.074 358.612 506.609 358.612Z" fill="black"/>
<path d="M468.72 343.154H438.92C438.455 343.154 438.083 342.782 438.083 342.317C438.083 341.852 438.455 341.48 438.92 341.48H468.72C469.185 341.48 469.557 341.852 469.557 342.317C469.557 342.782 469.185 343.154 468.72 343.154Z" fill="black"/>
<path d="M522.066 343.154H477.553C477.088 343.154 476.716 342.782 476.716 342.317C476.716 341.852 477.088 341.48 477.553 341.48H522.066C522.531 341.48 522.903 341.852 522.903 342.317C522.903 342.782 522.531 343.154 522.066 343.154Z" fill="black"/>
<path d="M23.5612 312.146C23.352 312.146 23.1196 312.053 22.9569 311.89L9.35875 298.385C9.19604 298.222 9.10306 298.013 9.10306 297.781C9.10306 297.548 9.19604 297.339 9.35875 297.176L34.1143 272.258C34.4397 271.933 34.9744 271.933 35.2998 272.258L43.5516 280.463C43.8771 280.789 43.8771 281.323 43.5516 281.649C43.2262 281.974 42.6916 281.974 42.3662 281.649L34.6954 274.048L11.1253 297.781L23.5147 310.077L47.6659 285.74C47.9914 285.414 48.526 285.414 48.8514 285.74C49.1769 286.065 49.1769 286.6 48.8514 286.925L24.1424 311.89C23.9796 312.053 23.7704 312.146 23.5612 312.146Z" fill="black"/>
<path d="M51.548 289.575L65.1461 303.08L43.9237 324.442L30.3256 310.96L51.548 289.575Z" fill="url(#paint1_linear_7_854)"/>
<path d="M13.4499 281.533C13.2407 281.533 13.0083 281.44 12.8456 281.277L0.549153 269.073C0.223728 268.748 0.223728 268.213 0.549153 267.888C0.874578 267.562 1.40921 267.562 1.73463 267.888L14.0311 280.091C14.3565 280.417 14.3565 280.951 14.0311 281.277C13.8683 281.463 13.6591 281.533 13.4499 281.533Z" fill="black"/>
<path d="M21.3762 273.536C21.167 273.536 20.9346 273.443 20.7719 273.281L8.47545 261.077C8.15003 260.752 8.15003 260.217 8.47545 259.892C8.80088 259.566 9.33551 259.566 9.66093 259.892L21.9574 272.095C22.2828 272.421 22.2828 272.955 21.9574 273.281C21.8179 273.443 21.6087 273.536 21.3762 273.536Z" fill="black"/>
<path d="M255.009 77.979C254.846 77.979 254.683 77.9325 254.544 77.8395C254.149 77.5838 254.056 77.0492 254.311 76.6773L259.448 68.9833C259.704 68.5881 260.239 68.4952 260.611 68.7509C261.006 69.0066 261.099 69.5412 260.843 69.9131L255.706 77.6071C255.543 77.8628 255.288 77.979 255.009 77.979Z" fill="black"/>
<path d="M279.136 64.7528C278.927 64.7528 278.741 64.6831 278.579 64.5436L269.815 56.8496C269.467 56.5474 269.42 56.0128 269.746 55.6641C270.048 55.3155 270.582 55.269 270.931 55.5944L279.694 63.2884C280.043 63.5906 280.089 64.1252 279.764 64.4739C279.601 64.6598 279.369 64.7528 279.136 64.7528Z" fill="black"/>
<path d="M463.211 259.822C463.025 259.822 462.862 259.775 462.7 259.659C462.328 259.38 462.258 258.846 462.537 258.474L466.651 252.965C466.93 252.593 467.465 252.523 467.837 252.802C468.208 253.081 468.278 253.616 467.999 253.988L463.885 259.496C463.722 259.706 463.467 259.822 463.211 259.822Z" fill="black"/>
<path d="M497.032 229.581C496.8 229.581 496.567 229.488 496.405 229.302L491.453 223.793C491.151 223.444 491.174 222.909 491.523 222.607C491.872 222.305 492.406 222.328 492.709 222.677L497.66 228.186C497.962 228.535 497.939 229.069 497.59 229.371C497.45 229.511 497.241 229.581 497.032 229.581Z" fill="black"/>
<path d="M38.2291 239.901C37.7874 239.901 37.4387 239.576 37.3923 239.134L36.7414 232.068C36.6949 231.603 37.0436 231.184 37.5085 231.138C37.9269 231.092 38.3918 231.44 38.4383 231.905L39.0891 238.971C39.1356 239.436 38.7869 239.855 38.322 239.901C38.2755 239.901 38.2523 239.901 38.2291 239.901Z" fill="black"/>
<path d="M26.9785 243.109C26.8623 243.109 26.7228 243.086 26.6066 243.016L17.9363 238.832C17.5179 238.623 17.332 238.135 17.5412 237.693C17.7504 237.275 18.2385 237.089 18.6802 237.298L27.3504 241.482C27.7688 241.691 27.9548 242.179 27.7456 242.621C27.5829 242.946 27.2807 243.109 26.9785 243.109Z" fill="black"/>
<path d="M464.373 378.928H234.577V392.154H464.373V378.928Z" fill="white"/>
<path d="M464.35 392.991H234.553C234.088 392.991 233.716 392.619 233.716 392.154V378.928C233.716 378.463 234.088 378.091 234.553 378.091H464.35C464.815 378.091 465.187 378.463 465.187 378.928V392.154C465.21 392.619 464.838 392.991 464.35 392.991ZM235.413 391.317H463.513V379.764H235.413V391.317Z" fill="black"/>
<path d="M87.7632 238.762L81.7196 280.138C81.7196 280.138 63.5888 281.068 57.7776 281.532C51.9664 281.997 56.6851 274.582 56.6851 274.582L53.1287 276.419C53.1287 276.419 48.2473 274.187 51.5015 265.959C51.5015 265.959 45.2255 260.054 47.085 257.544C47.085 257.544 43.3891 256.661 44.5281 250.849C45.6671 245.062 62.1011 237.554 70.5157 237.228C78.9302 236.903 87.7632 238.762 87.7632 238.762Z" fill="white"/>
<path d="M270.652 260.752C266.143 256.335 260.401 253.987 254.381 254.104C189.947 255.568 135.206 250.245 87.0194 237.879C86.787 237.809 86.5545 237.856 86.3453 237.995C86.1361 238.135 86.0199 238.344 85.9734 238.576C85.462 241.738 84.9739 244.759 84.5322 247.711C82.7657 258.892 81.2547 268.562 78.5584 280.184C78.4654 280.626 78.7211 281.091 79.186 281.184C131.998 294.619 185.995 301.383 239.923 301.383C244.758 301.383 249.616 301.337 254.451 301.221C267.421 300.918 277.974 290.365 277.974 277.674C277.974 271.444 275.301 265.284 270.652 260.752Z" fill="black"/>
<path d="M86.9961 237.879C70.4459 234.601 48.8981 240.227 44.2724 249.06C42.9707 251.523 42.3896 255.382 46.8526 259.775C46.8991 259.032 46.9921 258.288 47.1083 257.567C44.9 254.964 44.4584 252.36 45.7833 249.85C50.0371 241.738 71.0503 236.461 86.6707 239.553C87.1123 239.646 87.5772 239.343 87.6702 238.878C87.74 238.414 87.4378 237.949 86.9961 237.879Z" fill="black"/>
<path d="M51.9199 267.655C51.9896 267.167 52.0826 266.702 52.1756 266.214C50.8739 265.261 48.6657 263.216 48.1543 260.147C47.5964 256.8 49.2003 253.081 52.8962 249.106C53.2216 248.757 53.1984 248.223 52.8497 247.921C52.501 247.595 51.9664 247.618 51.6642 247.967C47.5964 252.36 45.8531 256.544 46.5039 260.449C47.2245 264.75 50.6415 267.283 51.8734 268.074C51.8734 267.934 51.8967 267.795 51.9199 267.655Z" fill="black"/>
<path d="M53.3146 277.162C53.3844 276.907 53.4774 276.674 53.5936 276.488C52.8265 275.837 52.2686 274.884 51.9897 273.652C50.8507 268.98 53.3379 261.612 58.8004 253.476C59.0561 253.081 58.9631 252.57 58.5679 252.291C58.1728 252.035 57.6614 252.128 57.3825 252.523C51.641 261.054 49.0841 268.887 50.3161 274.024C50.781 275.93 51.7805 277.395 53.1984 278.255C53.1752 277.883 53.2217 277.511 53.3146 277.162Z" fill="black"/>
<path d="M63.3796 263.704C63.0541 263.378 62.5195 263.378 62.1941 263.704C59.2188 266.679 57.9636 270.375 57.1035 273.188C57.7079 272.723 58.4052 272.49 59.1025 272.49C59.9161 270.003 61.0783 267.237 63.4028 264.913C63.705 264.564 63.705 264.029 63.3796 263.704Z" fill="black"/>
<path d="M72.933 260.519L67.889 266.726L63.0308 272.723C61.6361 273.769 60.1717 274.559 58.87 275.303C55.3833 277.232 54.3373 278.046 55.2439 280.045C55.3601 280.324 55.8715 280.486 56.6385 280.579L55.4531 282.021L53.733 284.136C53.6632 284.229 53.5703 284.299 53.4773 284.345L48.6424 287.018C48.5262 287.088 48.3634 287.134 48.224 287.134C48.038 287.134 47.8521 287.065 47.6894 286.948C47.4104 286.739 47.3174 286.367 47.4104 286.042L48.9678 280.696C48.9911 280.579 49.0608 280.486 49.1305 280.394L68.3074 256.777C68.4468 256.591 68.656 256.498 68.8885 256.475C69.1209 256.451 69.3301 256.521 69.5161 256.661L72.7936 259.311C73.1655 259.613 73.212 260.147 72.933 260.519Z" fill="black"/>
<path d="M80.2086 280.579C80.0924 281.021 79.6042 281.277 79.1626 281.161C76.7916 280.486 71.8405 281.068 67.0521 281.602C63.5189 282.021 60.6134 282.323 58.4051 282.323C57.2196 282.323 56.2201 282.23 55.453 282.021C54.5698 281.765 53.9886 281.37 53.6865 280.742C52.0593 277.139 54.9649 275.535 58.0332 273.815C60.7993 272.281 64.2163 270.352 66.3083 266.516C66.5407 266.098 67.0521 265.959 67.4473 266.168C67.6797 266.284 67.8192 266.493 67.8657 266.726C67.9122 266.912 67.8889 267.121 67.796 267.307C66.4943 269.701 64.7974 271.398 63.0076 272.723C61.6129 273.769 60.1485 274.559 58.8468 275.303C55.3601 277.232 54.3141 278.046 55.2206 280.045C55.3368 280.324 55.8482 280.486 56.6153 280.579C58.963 280.835 63.7049 280.3 66.8429 279.929C71.794 279.347 76.9079 278.766 79.6042 279.533C80.0691 279.673 80.3248 280.138 80.2086 280.579Z" fill="black"/>
<path d="M371.674 162.566C356.495 129.605 326.439 109.429 282.414 102.549C281.972 102.479 281.531 102.781 281.461 103.223C280.252 109.568 279.02 115.077 277.812 120.4C276.208 127.513 274.697 134.231 273.302 142.576C273.256 142.808 273.325 143.041 273.465 143.203C273.604 143.389 273.814 143.506 274.023 143.552C281.066 144.528 288.109 146.527 294.966 149.503C342.734 170.074 335.482 213.914 332.111 226.861C328.741 239.808 318.885 250.501 303.59 257.8C298.662 260.147 294.966 264.657 293.176 270.491C291.154 277.069 291.875 284.577 295.082 290.063C299.406 297.432 306.798 301.43 315.003 301.43C318.978 301.43 323.139 300.5 327.23 298.547C350.265 287.576 368.582 266.051 377.508 239.436C385.551 215.448 383.482 188.159 371.674 162.566Z" fill="black"/>
<path d="M244.293 120.145C243.642 120.145 243.038 119.843 242.456 119.261C240.853 117.634 240.318 115.147 240.992 112.428C241.922 108.662 245.641 103.432 253.056 101.061C258.495 99.3175 266.027 100.364 273.976 101.479C276.696 101.851 279.532 102.246 282.368 102.549C282.832 102.595 283.158 103.013 283.111 103.478C283.065 103.943 282.647 104.292 282.182 104.222C279.323 103.92 276.463 103.525 273.721 103.13C265.957 102.037 258.612 101.014 253.544 102.665C246.78 104.85 243.41 109.499 242.596 112.846C242.061 114.984 242.456 116.891 243.619 118.076C243.898 118.355 244.13 118.471 244.316 118.448C245.176 118.308 246.362 116.007 247.245 114.31C248.128 112.59 249.058 110.8 250.15 109.824C253.01 107.221 255.427 106.942 255.543 106.942C255.985 106.895 256.427 107.221 256.473 107.686C256.52 108.151 256.194 108.569 255.729 108.615C255.706 108.615 253.73 108.871 251.289 111.079C250.429 111.846 249.593 113.497 248.756 115.101C247.477 117.565 246.292 119.866 244.572 120.145C244.502 120.145 244.386 120.145 244.293 120.145Z" fill="black"/>
<path d="M248.547 126.235C246.966 126.235 245.385 125.259 244.711 123.748C244.13 122.469 243.851 121.609 243.665 119.75C243.619 119.285 243.944 118.866 244.409 118.82C244.827 118.773 245.292 119.099 245.339 119.564C245.525 121.26 245.757 121.958 246.245 123.027C246.734 124.143 248.128 124.701 249.035 124.445C249.709 124.259 250.011 123.678 249.895 122.702C249.476 118.564 251.336 112.311 255.38 111.567C255.822 111.474 256.287 111.777 256.357 112.242C256.45 112.706 256.148 113.148 255.683 113.218C252.8 113.752 251.22 119.145 251.568 122.516C251.754 124.329 250.964 125.677 249.453 126.072C249.174 126.188 248.872 126.235 248.547 126.235Z" fill="black"/>
<path d="M247.431 128.768C247.059 128.768 246.71 128.513 246.617 128.141C246.501 127.746 246.385 127.42 246.269 127.072C245.99 126.328 245.711 125.584 245.687 124.515C245.687 124.05 246.059 123.655 246.524 123.655C246.919 123.608 247.384 124.027 247.384 124.491C247.384 125.258 247.617 125.816 247.849 126.467C247.989 126.839 248.128 127.234 248.268 127.676C248.384 128.118 248.128 128.582 247.663 128.722C247.57 128.745 247.501 128.768 247.431 128.768Z" fill="black"/>
<path d="M251.289 118.773C250.941 118.773 250.639 118.564 250.499 118.239C250.336 117.797 250.546 117.309 250.964 117.146C252.196 116.658 253.684 116.263 255.381 115.984C255.822 115.891 256.287 116.216 256.357 116.681C256.427 117.146 256.124 117.588 255.659 117.658C254.079 117.913 252.707 118.285 251.592 118.727C251.499 118.75 251.406 118.773 251.289 118.773Z" fill="black"/>
<path d="M274.139 143.529C274.069 143.529 274 143.529 273.93 143.506C271.024 142.762 268.374 142.204 265.841 141.762C262.308 141.158 259.681 140.949 257.775 140.809C255.148 140.6 253.591 140.484 252.196 139.6C250.615 138.601 250.43 137.532 250.569 136.811C250.918 134.952 253.87 133.464 259.309 132.441C260.564 132.209 261.448 131.674 261.819 130.93C262.191 130.233 262.145 129.303 261.726 128.35C261.076 126.932 259.681 125.816 258.24 125.607C256.775 125.375 255.311 126.026 254.032 127.467C253.73 127.815 253.196 127.839 252.847 127.536C252.498 127.234 252.475 126.7 252.777 126.351C254.916 123.957 257.077 123.724 258.495 123.934C260.518 124.236 262.377 125.7 263.284 127.653C263.935 129.094 263.958 130.535 263.354 131.697C262.912 132.557 261.912 133.673 259.658 134.091C254.079 135.161 252.382 136.486 252.266 137.113C252.219 137.392 252.545 137.787 253.126 138.159C254.149 138.81 255.567 138.926 257.914 139.112C259.844 139.275 262.517 139.484 266.12 140.089C268.7 140.53 271.396 141.111 274.348 141.855C274.79 141.971 275.069 142.436 274.953 142.878C274.86 143.273 274.511 143.529 274.139 143.529Z" fill="black"/>
<path d="M262.726 131.86C262.679 131.86 262.633 131.86 262.61 131.86C262.145 131.79 261.819 131.349 261.889 130.907C261.959 130.419 263.772 118.936 269.653 117.983C270.094 117.913 270.536 118.215 270.629 118.68C270.699 119.145 270.397 119.587 269.932 119.657C266.027 120.284 264.004 128.164 263.563 131.163C263.493 131.558 263.144 131.86 262.726 131.86Z" fill="black"/>
<path d="M437.967 165.193C422.719 175.537 422.23 181.65 420.255 190.437C418.279 199.223 414.234 214.216 414.234 214.216L455.726 223.653L457.353 203.895L437.967 165.193Z" fill="white"/>
<path d="M448.52 221.306C444.801 220.399 441.105 219.539 437.34 218.888C429.622 217.563 421.859 216.447 414.327 214.239C414.304 214.239 414.281 214.216 414.234 214.216C414.118 214.425 414.002 214.634 413.886 214.867C413.839 214.96 413.816 215.053 413.793 215.169C412.305 227.628 407.772 243.504 401.985 256.614C397.429 266.935 390.083 275.745 381.831 280.835C372.441 286.623 364.979 287.785 355.193 284.973C345.151 282.09 336.342 275.582 326.602 263.867C323.162 259.729 317.909 257.288 311.842 256.986C304.868 256.684 297.755 259.264 293.246 263.797C284.343 272.699 284.32 286.367 293.2 297.037C312.539 320.328 338.922 332.857 364.886 332.857C378.229 332.857 391.455 329.556 403.588 322.699C441.733 301.151 453.867 258.404 456.865 223.095C454.076 222.561 451.287 221.98 448.52 221.306Z" fill="black"/>
<path d="M457.423 211.171C456.842 211.124 456.284 211.055 455.703 210.985C455.773 211.822 455.819 212.659 455.773 213.519C455.657 216.215 455.471 219.028 455.261 221.887C450.148 220.771 445.01 219.655 439.897 218.563C432.389 216.936 423.486 215.076 415.885 213.402C416.512 210.148 417.047 207.15 417.535 204.407C420.883 185.95 422.277 178.303 431.366 171.399C439.083 165.542 444.569 164.263 445.847 165.239C446.405 165.658 446.056 166.75 445.824 167.355C445.289 168.68 443.685 169.819 442.012 171.027C439.408 172.887 436.456 174.979 436.224 178.628C436.038 181.487 437.061 183.975 438.037 186.369C439.06 188.856 440.129 191.436 439.99 194.667C439.966 195.132 440.338 195.527 440.803 195.55C441.291 195.574 441.663 195.202 441.686 194.737C441.849 191.157 440.71 188.391 439.618 185.718C438.665 183.394 437.758 181.209 437.921 178.745C438.107 175.909 440.594 174.142 442.988 172.422C444.871 171.074 446.661 169.795 447.381 168.029C448.381 165.565 447.498 164.403 446.87 163.914C444.36 161.985 437.712 164.449 430.32 170.074C420.697 177.373 419.279 185.207 415.838 204.128C415.234 207.428 414.583 211.078 413.793 215.146C413.7 215.611 414.002 216.052 414.467 216.145C414.513 216.145 414.583 216.168 414.63 216.168C415.025 216.168 415.374 215.89 415.467 215.471C415.49 215.332 415.513 215.192 415.536 215.053C423.509 216.819 431.505 218.539 439.501 220.26C444.941 221.422 450.38 222.607 455.819 223.793C455.889 223.816 455.935 223.816 456.005 223.816C456.191 223.816 456.354 223.769 456.517 223.653C456.703 223.514 456.842 223.281 456.865 223.049C457.144 219.841 457.33 216.68 457.47 213.658C457.516 212.775 457.493 211.984 457.423 211.171Z" fill="black"/>
<path d="M457.005 210.032H441.803V171.864C441.268 172.19 440.71 172.492 440.106 172.678V210.892C440.106 211.357 440.478 211.729 440.943 211.729H457.005C457.005 211.171 457.005 210.59 457.005 210.032Z" fill="black"/>
<path d="M330.368 321.048C330.182 316.562 330.135 312.169 330.089 307.915C329.856 289.459 329.67 273.536 319.024 263.402C309.936 254.778 294.153 251.198 269.351 252.151C255.357 252.686 242.154 253.22 231.95 255.917C211.797 261.263 204.196 275.001 204.823 304.917L204.847 305.707C205.242 320.351 205.451 333.298 205.497 344.154C205.497 344.502 205.73 344.828 206.055 344.944C215.19 348.338 227.626 354.939 235.065 367.049C235.227 367.305 235.483 367.445 235.785 367.445L330.414 367.096C330.879 367.096 331.251 366.724 331.251 366.282C331.251 366.189 331.669 352.754 330.368 321.048Z" fill="black"/>
<path d="M229.347 379.253L228.417 362.261L329.554 367.119V379.253H331.251V366.306C331.251 365.864 330.902 365.492 330.438 365.469L227.557 360.541C227.278 360.541 227.092 360.611 226.906 360.797C226.743 360.959 226.65 361.192 226.65 361.448L227.626 379.299H229.347V379.253Z" fill="black"/>
<path d="M328.253 323.233C327.788 323.233 327.416 322.861 327.416 322.397V301.151C327.416 300.686 327.788 300.314 328.253 300.314C328.717 300.314 329.089 300.686 329.089 301.151V322.397C329.089 322.861 328.717 323.233 328.253 323.233Z" fill="white"/>
<path d="M344.849 282.3C344.733 282.3 344.64 282.276 344.524 282.23C342.827 281.509 339.549 279.115 335.017 275.791C328.81 271.235 320.303 264.982 311.516 260.031C311.121 259.799 310.959 259.287 311.191 258.869C311.423 258.451 311.935 258.311 312.353 258.543C321.209 263.541 329.763 269.84 336.016 274.42C340.293 277.558 343.664 280.022 345.175 280.672C345.616 280.858 345.802 281.347 345.64 281.788C345.5 282.09 345.175 282.3 344.849 282.3Z" fill="white"/>
<path d="M236.855 358.077C253.126 372.233 261.633 392.131 258.1 394.478C254.544 396.849 250.406 388.295 246.036 382.926C246.036 382.926 247.361 397.732 242.968 399.406C238.598 401.08 237.691 390.573 237.691 390.573C237.691 390.573 236.088 403.683 227.673 400.661C219.258 397.639 225.325 395.617 225.325 395.617C225.325 395.617 216.957 395.547 202.522 390.248L236.855 358.077Z" fill="white"/>
<path d="M230.09 401.963C229.23 401.963 228.347 401.8 227.394 401.452C223.954 400.22 222.35 398.965 222.373 397.5C222.373 397.035 222.559 396.617 222.815 396.291C219.305 395.919 212.238 394.711 202.22 391.038C201.778 390.875 201.546 390.387 201.708 389.946C201.871 389.504 202.359 389.271 202.801 389.434C216.91 394.618 225.232 394.757 225.325 394.757C225.743 394.757 226.092 395.059 226.162 395.478C226.232 395.896 225.999 396.291 225.604 396.408C224.907 396.64 224.07 397.175 224.07 397.5C224.07 397.547 224.116 398.453 227.975 399.848C229.672 400.452 231.136 400.382 232.391 399.592C235.948 397.407 236.854 390.527 236.854 390.457C236.901 390.039 237.273 389.713 237.691 389.713C237.691 389.713 237.691 389.713 237.714 389.713C238.156 389.713 238.505 390.062 238.551 390.48C238.76 393.037 239.737 397.5 241.364 398.523C241.759 398.779 242.177 398.802 242.666 398.616C245.408 397.547 245.664 388.481 245.176 382.995C245.153 382.624 245.362 382.275 245.711 382.135C246.059 381.996 246.454 382.089 246.687 382.391C247.826 383.809 248.965 385.436 250.057 386.994C252.823 390.968 255.659 395.059 257.612 393.758C257.844 393.618 257.984 393.2 258.007 392.595C258.379 386.924 249.895 370.513 236.273 358.682C235.925 358.379 235.878 357.845 236.18 357.496C236.482 357.147 237.017 357.101 237.366 357.403C251.568 369.769 260.076 386.552 259.681 392.688C259.611 393.851 259.216 394.687 258.518 395.152C255.171 397.384 251.987 392.781 248.616 387.947C248.082 387.179 247.547 386.389 246.989 385.622C247.152 390.225 246.919 398.732 243.223 400.173C242.224 400.545 241.271 400.475 240.411 399.941C238.946 399.011 238.04 396.803 237.505 394.757C236.738 397.035 235.413 399.662 233.228 401.01C232.322 401.661 231.252 401.963 230.09 401.963Z" fill="black"/>
<path d="M240.946 256.614C240.876 256.196 240.527 255.893 240.109 255.893H240.086C214.284 256.591 189.993 261.286 167.841 269.84C141.365 280.068 113.914 294.712 110.868 325.651C108.172 353.335 131.324 374.162 155.591 380.415C162.03 382.066 168.771 382.74 175.279 383.367C181.463 383.972 187.297 384.553 192.922 385.901C194.665 386.319 196.479 386.831 198.268 387.435C198.757 387.784 199.803 388.272 201.918 389.271C201.918 389.481 201.918 389.759 201.895 389.969C201.848 390.852 201.825 391.503 202.359 391.852C202.499 391.944 202.662 391.991 202.824 391.991C202.894 391.991 202.964 391.991 203.034 391.968C203.475 391.852 203.847 391.526 213.401 382.019C220.885 374.557 231.136 364.353 237.366 358.705C237.529 358.542 237.645 358.333 237.645 358.1C237.645 357.868 237.552 357.635 237.389 357.473C231.462 351.615 223.559 346.757 214.516 343.386C209.449 341.504 204.126 340.086 198.687 339.226C196.595 338.9 193.689 338.575 190.295 338.18C178.789 336.878 157.381 334.484 157.59 329.184C157.706 322.745 175.093 315.702 184.391 313.726C197.989 310.844 212.843 311.96 220.467 312.866C220.699 312.889 220.955 312.82 221.141 312.657C221.327 312.494 221.42 312.262 221.42 312.006C220.699 278.673 223.349 262.03 240.248 257.544C240.736 257.451 241.015 257.056 240.946 256.614Z" fill="black"/>
<path d="M132.044 292.062C131.765 292.062 131.486 291.923 131.347 291.667C131.091 291.272 131.208 290.761 131.603 290.505C152.523 276.883 194.828 260.31 229.416 256.149C229.858 256.08 230.299 256.428 230.346 256.893C230.392 257.358 230.067 257.776 229.602 257.823C195.27 261.96 153.267 278.394 132.509 291.923C132.347 292.039 132.184 292.062 132.044 292.062Z" fill="white"/>
<path d="M235.158 357.101C234.948 357.101 234.739 357.031 234.576 356.868C234.46 356.752 223.094 345.804 206.892 342.247C206.427 342.155 206.148 341.69 206.241 341.248C206.334 340.783 206.799 340.504 207.241 340.597C223.93 344.247 235.274 355.195 235.762 355.66C236.087 355.985 236.111 356.52 235.785 356.845C235.599 357.031 235.39 357.101 235.158 357.101Z" fill="white"/>
<path d="M272.535 215.541C272.442 215.448 272.303 215.332 272.21 215.215C271.954 214.983 271.721 214.751 271.512 214.495C271.35 214.355 271.21 214.169 271.071 214.007C270.838 213.751 270.606 213.472 270.42 213.193C270.071 212.775 269.746 212.333 269.467 211.868C269.258 211.589 269.072 211.287 268.909 210.962C268.723 210.706 268.56 210.381 268.397 210.102C268.142 209.613 267.909 209.102 267.677 208.591C267.375 207.986 267.119 207.336 266.91 206.661C266.677 206.011 266.445 205.29 266.259 204.593C266.05 203.872 265.864 203.105 265.701 202.338C265.236 200.153 264.934 197.759 264.795 195.109C264.446 188.856 266.398 184.021 269.653 180.534C277.021 172.631 290.968 171.748 299.406 177.396C300.103 177.861 300.777 178.373 301.358 178.907C312.772 189.112 315.747 198.107 315.747 198.107L310.958 201.71C310.958 201.71 312.539 217.052 298.313 220.399L286.993 261.472L279.09 288.506L263.563 253.755L272.535 215.541Z" fill="white"/>
<path d="M279.067 289.343C278.741 289.343 278.439 289.157 278.3 288.831L262.772 254.08C262.703 253.918 262.679 253.732 262.726 253.546L271.628 215.82C271.373 215.587 271.117 215.332 270.885 215.053C270.768 214.936 270.582 214.727 270.42 214.541C270.211 214.309 269.955 214.007 269.746 213.704C269.397 213.309 269.048 212.821 268.769 212.333C268.583 212.077 268.374 211.752 268.188 211.403C268.072 211.241 267.933 210.962 267.77 210.706L267.677 210.543C267.398 210.009 267.166 209.497 266.91 208.963C266.608 208.335 266.352 207.661 266.12 206.964C265.887 206.313 265.631 205.592 265.445 204.848C265.236 204.128 265.05 203.337 264.888 202.547C264.423 200.316 264.12 197.921 263.958 195.202C263.632 189.181 265.376 183.928 269.048 180C276.347 172.166 290.759 170.632 299.894 176.745C300.591 177.21 301.289 177.745 301.963 178.326C313.399 188.577 316.467 197.503 316.584 197.875C316.7 198.224 316.584 198.595 316.282 198.828L311.842 202.175C311.958 204.872 311.819 217.819 299.011 221.166L287.83 261.751L279.904 288.785C279.811 289.133 279.508 289.366 279.16 289.389C279.09 289.343 279.067 289.343 279.067 289.343ZM264.423 253.662L278.881 286.065L286.156 261.24L297.477 220.19C297.57 219.888 297.802 219.655 298.104 219.585C311.447 216.447 310.168 202.408 310.098 201.803C310.075 201.501 310.191 201.222 310.424 201.036L314.701 197.805C313.841 195.713 310.238 188.019 300.754 179.535C300.15 179 299.545 178.512 298.895 178.094C290.387 172.422 276.975 173.817 270.211 181.092C266.817 184.718 265.259 189.414 265.585 195.039C265.748 197.666 266.027 199.99 266.491 202.152C266.654 202.896 266.817 203.64 267.026 204.337C267.212 205.034 267.444 205.732 267.677 206.359C267.886 207.033 268.142 207.614 268.421 208.219C268.653 208.73 268.862 209.218 269.118 209.683L269.211 209.846C269.327 210.078 269.467 210.288 269.583 210.497C269.769 210.845 269.932 211.124 270.118 211.38C270.42 211.868 270.699 212.263 271.024 212.658C271.257 212.961 271.443 213.216 271.652 213.449C271.814 213.658 271.954 213.797 272.07 213.914C272.326 214.193 272.535 214.402 272.744 214.611L273.093 214.936C273.302 215.146 273.395 215.448 273.325 215.727L264.423 253.662Z" fill="black"/>
<path d="M299.359 177.42C299.359 177.42 299.359 177.396 299.383 177.396C290.922 171.748 276.975 172.631 269.629 180.534C266.491 185.486 264.516 190.669 264.771 195.109C264.795 195.574 264.562 196.294 264.213 197.131C264.841 201.943 266.491 206.731 268.607 210.845C269.536 212.635 270.815 214.472 272.349 216.075C272.767 216.029 273.209 215.959 273.674 215.843C274.441 215.657 275.185 215.425 275.929 215.076C278.067 214.1 285.482 205.546 281.624 204.662C277.323 203.663 275.324 196.759 280.461 195.179C281.67 194.807 283.135 194.295 284.669 193.644C284.738 193.784 284.831 193.9 284.924 194.04C285.227 194.365 285.087 195.434 285.203 195.853C285.343 196.457 285.599 197.015 285.97 197.503C286.831 198.572 288.295 198.967 289.48 198.154C290.689 197.34 290.759 195.853 290.55 194.551C290.364 193.412 290.108 192.273 289.829 191.134C295.454 187.926 300.545 183.231 299.359 177.42Z" fill="black"/>
<path d="M268.769 403.706H213.47C213.005 403.706 212.633 403.334 212.633 402.87C212.633 402.405 213.005 402.033 213.47 402.033H268.769C269.234 402.033 269.606 402.405 269.606 402.87C269.606 403.334 269.257 403.706 268.769 403.706Z" fill="black"/>
<path d="M114.471 402.87H213.47L157.544 335.6H58.5446L114.471 402.87Z" fill="white"/>
<path d="M213.47 403.706H114.471C114.216 403.706 113.983 403.59 113.82 403.404L57.8938 336.134C57.6846 335.878 57.6381 335.53 57.7775 335.228C57.917 334.925 58.2192 334.74 58.5446 334.74H157.567C157.823 334.74 158.055 334.856 158.218 335.042L214.144 402.312C214.354 402.567 214.4 402.916 214.261 403.218C214.098 403.52 213.819 403.706 213.47 403.706ZM114.866 402.009H211.68L157.148 336.436H60.3344L114.866 402.009Z" fill="black"/>
<path d="M135.159 367.026H122.002V373.791H135.159V367.026Z" fill="black"/>
<path d="M135.136 374.627H121.979C121.514 374.627 121.143 374.255 121.143 373.791V367.026C121.143 366.561 121.514 366.19 121.979 366.19H135.136C135.601 366.19 135.973 366.561 135.973 367.026V373.791C135.996 374.255 135.601 374.627 135.136 374.627ZM122.839 372.954H134.299V367.886H122.839V372.954Z" fill="black"/>
</g>
<defs>
<linearGradient id="paint0_linear_7_854" x1="244.175" y1="5.12305" x2="306.622" y2="443.128" gradientUnits="userSpaceOnUse">
<stop stop-color="#FF647E"/>
<stop offset="0.152" stop-color="#FF6882"/>
<stop offset="0.3137" stop-color="#FF758C"/>
<stop offset="0.4799" stop-color="#FF8A9E"/>
<stop offset="0.6491" stop-color="#FFA8B7"/>
<stop offset="0.8209" stop-color="#FFCED7"/>
<stop offset="0.9923" stop-color="#FFFDFD"/>
<stop offset="1" stop-color="white"/>
</linearGradient>
<linearGradient id="paint1_linear_7_854" x1="70.2128" y1="286.182" x2="31.888" y2="321.702" gradientUnits="userSpaceOnUse">
<stop stop-color="#FF647E"/>
<stop offset="0.152" stop-color="#FF6882"/>
<stop offset="0.3137" stop-color="#FF758C"/>
<stop offset="0.4799" stop-color="#FF8A9E"/>
<stop offset="0.6491" stop-color="#FFA8B7"/>
<stop offset="0.8209" stop-color="#FFCED7"/>
<stop offset="0.9923" stop-color="#FFFDFD"/>
<stop offset="1" stop-color="white"/>
</linearGradient>
<clipPath id="clip0_7_854">
<rect width="523" height="374" fill="white" transform="translate(0 55)"/>
</clipPath>
</defs>
</svg>
